<?xml version="1.0" encoding="utf-8"?>

<!-- License Agreement at http://iconmonstr.com/license/ -->

<!DOCTYPE svg PUBLIC "-//W3C//DTD SVG 1.1//EN" "http://www.w3.org/Graphics/SVG/1.1/DTD/svg11.dtd">
<svg version="1.1" xmlns="http://www.w3.org/2000/svg" xmlns:xlink="http://www.w3.org/1999/xlink" x="0px" y="0px"
	 width="512px" height="512px" viewBox="0 0 512 512" style="enable-background:new 0 0 512 512;" xml:space="preserve">
<path id="gamepad-10-icon" d="M180.506,226.828h23.477v-18.58h-23.477v-23.476h-18.58v23.476H138.45v18.58h23.477v23.478h18.58
	V226.828z M241.157,250.036h29.486v-12.744h-29.486V250.036z M325.498,209.678c-4.352-4.353-11.41-4.353-15.766,0
	c-4.354,4.356-4.354,11.413,0,15.768c4.354,4.353,11.414,4.353,15.766,0C329.854,221.091,329.854,214.034,325.498,209.678z
	 M350.16,232.389c-4.354-4.353-11.412-4.353-15.768,0c-4.352,4.353-4.352,11.411,0,15.766c4.355,4.354,11.414,4.354,15.768,0
	S354.514,236.741,350.16,232.389z M350.16,187.389c-4.354-4.354-11.412-4.354-15.768,0c-4.352,4.353-4.352,11.411,0,15.766
	c4.355,4.353,11.414,4.353,15.768,0C354.514,198.8,354.514,191.741,350.16,187.389z M374.748,209.678
	c-4.355-4.353-11.414-4.353-15.768,0c-4.352,4.356-4.352,11.413,0,15.768c4.354,4.353,11.412,4.353,15.768,0
	C379.1,221.091,379.1,214.034,374.748,209.678z M460.418,325.5l-40.242-165.834c-3.52-14.084-16.172-23.963-30.688-23.963H122.512
	c-14.516,0-27.17,9.879-30.689,23.963L51.583,325.5c-11.188,44.751,39.6,66.875,69.084,37.391l41.295-40.262
	c8.156,11.903,23.209,18.578,36.184,18.578c31.521,0,39.607-27.766,57.816-27.766c0.014,0,0.025,0.002,0.039,0.002
	c0.012,0,0.025-0.002,0.037-0.002c18.209,0,26.295,27.766,57.818,27.766c12.973,0,28.027-6.675,36.182-18.578l41.295,40.262
	C420.816,392.374,471.604,370.251,460.418,325.5z M199.608,321.671c-11.217,0-20.34-9.121-20.34-20.34
	c0-11.216,9.123-20.339,20.34-20.339s20.342,9.123,20.342,20.339C219.95,312.55,210.825,321.671,199.608,321.671z M312.393,321.671
	c-11.217,0-20.342-9.121-20.342-20.34c0-11.216,9.125-20.339,20.342-20.339c11.215,0,20.338,9.123,20.338,20.339
	C332.73,312.55,323.607,321.671,312.393,321.671z M412.545,341.677l-0.133-0.134l-0.137-0.133l-41.295-40.262
	c-21.547-21.547-36.146-39.648-58.125-39.648c-27.965,0-34.496,20.109-56.855,19.988c-22.359,0.121-28.89-19.988-56.855-19.988
	c-21.979,0-36.578,18.102-58.125,39.648L99.725,341.41l-0.137,0.133l-0.135,0.134c-7.732,7.735-22.602,6.429-18.768-8.901
	l0.025-0.101l0.025-0.101l37.994-156.332c1.502-6.185,7.043-10.539,13.406-10.539h247.724c6.365,0,11.904,4.354,13.408,10.539
	l37.994,156.332l0.023,0.101l0.025,0.101C435.148,348.105,420.279,349.412,412.545,341.677z"/>
</svg>
