<?xml version="1.0" encoding="utf-8"?>

<!-- License Agreement at http://iconmonstr.com/license/ -->

<!DOCTYPE svg PUBLIC "-//W3C//DTD SVG 1.1//EN" "http://www.w3.org/Graphics/SVG/1.1/DTD/svg11.dtd">
<svg version="1.1" xmlns="http://www.w3.org/2000/svg" xmlns:xlink="http://www.w3.org/1999/xlink" x="0px" y="0px"
	 width="512px" height="512px" viewBox="0 0 512 512" style="enable-background:new 0 0 512 512;" xml:space="preserve">
<path id="gamepad-4-icon" d="M364.586,255.798C402.089,257.15,432,287.971,432,325.744c0,38.598-31.402,70-70,70
	c-17.467,0-34.192-6.473-47.097-18.227c-33.562-30.562-84.658-29.627-118.308,0.447c-12.827,11.465-29.375,17.779-46.596,17.779
	c-38.598,0-70-31.402-70-70s31.402-70.001,70-70.001L364.586,255.798z M365.667,225.743H150c-55.229,0-100,44.772-100,100.001
	s44.771,100,100,100c25.58,0,48.908-9.609,66.588-25.412c21.93-19.6,55.699-21.049,78.115-0.635
	c17.764,16.18,41.375,26.047,67.297,26.047c55.229,0,100-44.771,100-100c0-54-42.805-97.997-96.333-99.929V225.743z M194.5,336.895
	h-28.35v28.35h-24.3v-28.35H113.5v-24.301h28.351v-28.35h24.3v28.35h28.35V336.895z M271.5,337.344h-30v-15h30V337.344z
	 M345.99,288.811c5.694-5.693,14.927-5.693,20.619,0c5.694,5.693,5.694,14.926,0,20.619c-5.692,5.693-14.925,5.693-20.619,0
	C340.298,303.736,340.298,294.504,345.99,288.811z M333.358,335.053c-5.693,5.693-14.926,5.693-20.619,0s-5.693-14.926,0-20.619
	c5.694-5.695,14.926-5.693,20.619,0C339.053,320.127,339.053,329.359,333.358,335.053z M366.61,361.225
	c-5.693,5.693-14.926,5.693-20.62,0c-5.693-5.693-5.693-14.926,0.001-20.619c5.693-5.693,14.926-5.693,20.618,0
	C372.304,346.299,372.304,355.531,366.61,361.225z M398.766,335.053c-5.692,5.693-14.926,5.693-20.619,0s-5.693-14.926,0-20.619
	c5.694-5.695,14.927-5.693,20.619,0C404.459,320.127,404.46,329.359,398.766,335.053z M265.688,194.782v10.962H245.39v-10.962
	c0-26.72-8.237-31.061-37.144-36.433c-44.346-8.243-58.861-23.196-51.254-72.094l20.108,2.807
	c-6.104,38.547,2.114,43.245,34.854,49.33C237.162,143.076,265.688,149.078,265.688,194.782z"/>
</svg>
