<?xml version="1.0" encoding="utf-8"?>

<!-- License Agreement at http://iconmonstr.com/license/ -->

<!DOCTYPE svg PUBLIC "-//W3C//DTD SVG 1.1//EN" "http://www.w3.org/Graphics/SVG/1.1/DTD/svg11.dtd">
<svg version="1.1" xmlns="http://www.w3.org/2000/svg" xmlns:xlink="http://www.w3.org/1999/xlink" x="0px" y="0px"
	 width="512px" height="512px" viewBox="0 0 512 512" style="enable-background:new 0 0 512 512;" xml:space="preserve">
<path id="gamepad-14-icon" d="M142.324,90.642c4.784-2.76,10.898-1.12,13.66,3.66l145.932,252.691
	c1.326,2.297,1.687,5.028,0.999,7.59c-0.686,2.562-2.362,4.747-4.659,6.073l-51.376,29.652c-4.782,2.76-10.897,1.121-13.658-3.66
	L87.288,133.957c-1.326-2.297-1.687-5.027-0.999-7.59c0.686-2.562,2.363-4.747,4.66-6.073L142.324,90.642z M154.241,53.367
	c-3.401,0-6.849,0.866-10.007,2.688l-84.207,48.603c-9.588,5.535-12.875,17.791-7.337,27.378l164.894,285.522
	c3.712,6.43,10.451,10.023,17.379,10.023c3.402,0,6.85-0.865,10.008-2.689l84.206-48.6c9.592-5.535,12.873-17.794,7.338-27.378
	L171.623,63.392C167.908,56.963,161.17,53.367,154.241,53.367z M265.633,347.66c-1.598,5.961-7.729,9.496-13.689,7.902
	c-5.959-1.599-9.497-7.727-7.902-13.684c1.598-5.961,7.729-9.497,13.69-7.898C263.688,335.573,267.229,341.702,265.633,347.66z
	 M248.039,317.199c-1.598,5.957-7.727,9.496-13.688,7.901c-5.961-1.599-9.497-7.723-7.9-13.684c1.598-5.958,7.725-9.496,13.687-7.9
	C246.098,305.114,249.637,311.242,248.039,317.199z M201.673,252.714c-8.19,4.729-18.665,1.922-23.395-6.267
	c-4.729-8.188-1.923-18.659,6.269-23.388c8.192-4.729,18.668-1.924,23.396,6.266S209.863,247.986,201.673,252.714z M169.478,144.079
	l-15.248,8.801l8.804,15.243l-15.322,8.844l-8.804-15.243l-15.249,8.798l-8.846-15.314l15.248-8.802l-8.804-15.241l15.321-8.844
	l8.804,15.24l15.249-8.799L169.478,144.079z M459.74,302.688c-7.426-37.246-32.051-50.462-50.881-50.462
	c-30.082,0-53.05,30.188-35.773,70.031c18.105,41.756,20.827,77.379,7.468,97.732c-13.606,20.729-40.787,20.74-60.658,5.141
	c-4.333-3.557-8.434-7.969-12.244-13.141l-19.265,11.148c5.022,7.402,10.954,13.85,17.706,19.184
	c39.148,31.947,89.664,13.662,122.431-26.281C455.632,382.994,467.303,340.619,459.74,302.688z M409.564,404.334
	c4.299-24.855-1.162-56.044-16.253-90.847c-10.825-24.971,1.167-39.215,15.548-39.215c16.763,0,26.105,16.906,29.26,32.727
	C444.897,340.998,432.612,377.574,409.564,404.334z"/>
</svg>
