<?xml version="1.0" encoding="utf-8"?>

<!-- License Agreement at http://iconmonstr.com/license/ -->

<!DOCTYPE svg PUBLIC "-//W3C//DTD SVG 1.1//EN" "http://www.w3.org/Graphics/SVG/1.1/DTD/svg11.dtd">
<svg version="1.1" xmlns="http://www.w3.org/2000/svg" xmlns:xlink="http://www.w3.org/1999/xlink" x="0px" y="0px"
	 width="512px" height="512px" viewBox="0 0 512 512" style="enable-background:new 0 0 512 512;" xml:space="preserve">
<path id="gamepad-12-icon" d="M172.487,216.353c9.853,0,17.867,8.015,17.867,17.865s-8.015,17.865-17.867,17.865
	c-9.851,0-17.865-8.015-17.865-17.865S162.637,216.353,172.487,216.353z M172.487,198.353c-19.775,0-35.865,16.089-35.865,35.865
	s16.09,35.865,35.865,35.865c19.777,0,35.867-16.089,35.867-35.865S192.265,198.353,172.487,198.353z M388.086,181.79
	c27.277,69.108,40.663,112.912,43.402,142.028c1.437,15.237-0.256,38.42-11.352,28.601c-12.316-10.915-42.061-37.274-42.477-37.647
	c-10.407-9.308-26.133-23.375-59.576-23.375H193.916c-33.443,0-49.169,14.067-59.575,23.375
	c-0.417,0.373-30.161,26.732-42.478,37.646c-11.092,9.83-12.787-13.339-11.352-28.6c2.739-29.116,16.125-72.92,43.402-142.028
	c12.148-30.776,34.543-35.433,53.596-25.618c24.785,12.767,51.185,19.239,78.467,19.239c26.927,0,54.076-6.652,78.513-19.239
	C350.809,147.77,374.796,148.121,388.086,181.79z M352.547,121.688c-11.264,0.001-22.282,2.915-31.794,7.814
	c-20.485,10.551-42.579,15.909-64.776,15.909c-21.967,0-44.034-5.249-64.729-15.909c-9.514-4.9-20.528-7.814-31.794-7.814
	c-24.094,0-49.331,13.334-63.443,49.088c-52.697,133.51-62.958,194.53-15.967,217.739c6.334,3.13,13.938,2.111,19.225-2.574
	l53.385-47.303c9.574-8.481,17.898-17.241,41.264-17.241h124.168c23.365,0,31.689,8.76,41.264,17.241l53.385,47.303
	c5.277,4.678,12.877,5.709,19.226,2.574c46.99-23.209,36.729-84.229-15.968-217.739
	C401.877,135.019,376.643,121.687,352.547,121.688z M270.999,207.961c0-8.244-6.681-14.925-14.925-14.925
	c-8.24,0-14.925,6.681-14.925,14.925c0,8.242,6.685,14.924,14.925,14.924C264.318,222.885,270.999,216.203,270.999,207.961z
	 M323.068,225.72c-4.569-4.57-11.98-4.57-16.553,0c-4.572,4.573-4.572,11.983,0,16.556c4.571,4.569,11.983,4.569,16.553,0
	C327.641,237.703,327.641,230.293,323.068,225.72z M348.964,249.566c-4.571-4.57-11.983-4.57-16.556,0
	c-4.569,4.569-4.569,11.981,0,16.554c4.572,4.571,11.984,4.571,16.556,0C353.534,261.548,353.534,254.136,348.964,249.566z
	 M348.964,202.316c-4.571-4.572-11.983-4.572-16.556,0c-4.569,4.569-4.569,11.981,0,16.554c4.572,4.569,11.984,4.569,16.556,0
	C353.534,214.298,353.534,206.886,348.964,202.316z M374.78,225.72c-4.572-4.57-11.984-4.57-16.555,0
	c-4.571,4.573-4.571,11.983,0,16.556c4.57,4.569,11.982,4.569,16.555,0C379.351,237.703,379.351,230.293,374.78,225.72z"/>
</svg>
